<?xml version="1.0" encoding="UTF-8"?>
<svg xmlns="http://www.w3.org/2000/svg" xmlns:xlink="http://www.w3.org/1999/xlink" viewBox="0 0 240 240" width="240px" height="240px">
<g id="surface12981721">
<path style=" stroke:none;fill-rule:nonzero;fill:rgb(28.235295%,24.313726%,24.313726%);fill-opacity:1;" d="M 120 240 C 53.726562 240 0 186.273438 0 120 C 0 53.726562 53.726562 0 120 0 C 186.273438 0 240 53.726562 240 120 C 240 186.273438 186.273438 240 120 240 Z M 120 240 "/>
<path style=" stroke:none;fill-rule:nonzero;fill:rgb(0.784314%,46.666667%,74.117649%);fill-opacity:1;" d="M 209.5625 19.898438 L 30.4375 19.898438 L 46.242188 199.027344 L 120 220.101562 L 193.757812 199.027344 Z M 209.5625 19.898438 "/>
<path style=" stroke:none;fill-rule:nonzero;fill:rgb(1.176471%,60.784316%,89.803922%);fill-opacity:1;" d="M 120 35.707031 L 120 203.769531 L 179.007812 186.910156 L 192.175781 35.707031 Z M 120 35.707031 "/>
<path style=" stroke:none;fill-rule:nonzero;fill:rgb(100%,100%,100%);fill-opacity:1;" d="M 167.941406 62.046875 L 120 62.046875 L 120 83.121094 L 145.816406 83.121094 L 144.234375 104.195312 L 120 104.195312 L 120 125.269531 L 143.179688 125.269531 L 141.601562 148.976562 L 120 156.351562 L 120 178.480469 L 161.621094 164.78125 L 165.308594 104.195312 Z M 167.941406 62.046875 "/>
<path style=" stroke:none;fill-rule:nonzero;fill:rgb(93.333334%,93.333334%,93.333334%);fill-opacity:1;" d="M 120 62.046875 L 120 83.121094 L 73.109375 83.121094 L 71.53125 62.046875 Z M 95.765625 104.195312 L 96.820312 125.269531 L 120 125.269531 L 120 104.195312 Z M 97.871094 135.804688 L 76.800781 135.804688 L 78.378906 164.78125 L 120 178.480469 L 120 156.351562 L 98.398438 148.976562 Z M 97.871094 135.804688 "/>
</g>
</svg>
