<?xml version="1.0" encoding="UTF-8"?>
<svg xmlns="http://www.w3.org/2000/svg" xmlns:xlink="http://www.w3.org/1999/xlink" viewBox="0 0 240 240" width="240px" height="240px">
<g id="surface19566498">
<path style=" stroke:none;fill-rule:nonzero;fill:rgb(28.235295%,24.313726%,24.313726%);fill-opacity:1;" d="M 120 240 C 53.726562 240 0 186.273438 0 120 C 0 53.726562 53.726562 0 120 0 C 186.273438 0 240 53.726562 240 120 C 240 186.273438 186.273438 240 120 240 Z M 120 240 "/>
<path style=" stroke:none;fill-rule:nonzero;fill:rgb(100%,83.92157%,0%);fill-opacity:1;" d="M 24.601562 215.398438 L 24.601562 24.601562 L 215.398438 24.601562 L 215.398438 215.398438 Z M 24.601562 215.398438 "/>
<path style=" stroke:none;fill-rule:nonzero;fill:rgb(0%,0%,0.392157%);fill-opacity:1;" d="M 149.351562 167.417969 C 153.019531 173.375 157.003906 179.085938 165.449219 179.085938 C 172.539062 179.085938 176.257812 175.558594 176.257812 170.683594 C 176.257812 164.847656 172.410156 162.777344 164.609375 159.378906 L 160.332031 157.554688 C 147.988281 152.320312 139.78125 145.757812 139.78125 131.898438 C 139.78125 119.125 149.558594 109.40625 164.839844 109.40625 C 175.71875 109.40625 183.535156 113.171875 189.175781 123.042969 L 175.851562 131.558594 C 172.921875 126.324219 169.75 124.261719 164.839844 124.261719 C 159.824219 124.261719 156.648438 127.425781 156.648438 131.558594 C 156.648438 136.667969 159.828125 138.734375 167.171875 141.898438 L 171.445312 143.722656 C 185.996094 149.917969 194.199219 156.246094 194.199219 170.472656 C 194.199219 185.800781 182.09375 194.199219 165.84375 194.199219 C 149.949219 194.199219 140.925781 186.222656 135.898438 176.347656 Z M 87.945312 167.855469 C 90.628906 172.65625 94.703125 176.347656 100.566406 176.347656 C 106.171875 176.347656 109.398438 174.132812 109.398438 165.523438 L 109.398438 109.398438 L 127.066406 109.398438 L 127.066406 168.234375 C 127.066406 186.082031 116.714844 194.199219 101.597656 194.199219 C 87.941406 194.199219 78.082031 184.945312 74.066406 176.347656 Z M 87.945312 167.855469 "/>
</g>
</svg>
